<svg xmlns="http://www.w3.org/2000/svg" width="24" height="24" viewBox="0 0 800 800">
  <defs>
    <style>
      .cls-1 {
        fill-rule: evenodd;
      }
    </style>
  </defs>
  <path id="Rounded_Rectangle_1_copy" data-name="Rounded Rectangle 1 copy" class="cls-1" d="M740.077,216.387l-229.8,190.578L561.533,468.9a16.425,16.425,0,0,1-2.166,23.111l-353.538,293.2a16.384,16.384,0,0,1-23.086-2.168L46.757,618.724a16.426,16.426,0,0,1,2.166-23.111l229.8-190.578L227.467,343.1a16.424,16.424,0,0,1,2.166-23.111L583.17,26.795a16.385,16.385,0,0,1,23.087,2.168L742.243,193.276A16.426,16.426,0,0,1,740.077,216.387ZM338.352,402.475l63.132-52.356c6.973-5.783,15.838-6.591,19.8-1.8l35.864,43.335c3.962,4.787,1.52,13.355-5.453,19.138l-63.132,52.357c-6.973,5.783-15.838,6.591-19.8,1.8L332.9,421.614C328.937,416.827,331.379,408.259,338.352,402.475Z"/>
</svg>
